<?xml version="1.0" encoding="utf-8"?>
<!-- Generator: Adobe Illustrator 13.0.3, SVG Export Plug-In . SVG Version: 6.00 Build 14948)  -->
<!DOCTYPE svg PUBLIC "-//W3C//DTD SVG 1.0//EN" "http://www.w3.org/TR/2001/REC-SVG-20010904/DTD/svg10.dtd">
<svg version="1.0"
	 id="svg2" inkscape:output_extension="org.inkscape.output.svg.inkscape" xmlns:sodipodi="http://sodipodi.sourceforge.net/DTD/sodipodi-0.dtd" sodipodi:version="0.32" xmlns:cc="http://creativecommons.org/ns#" xmlns:inkscape="http://www.inkscape.org/namespaces/inkscape" xmlns:svg="http://www.w3.org/2000/svg" sodipodi:docname="NOR ANSI.svg" inkscape:version="0.46" xmlns:dc="http://purl.org/dc/elements/1.1/" xmlns:rdf="http://www.w3.org/1999/02/22-rdf-syntax-ns#"
	 xmlns="http://www.w3.org/2000/svg" xmlns:xlink="http://www.w3.org/1999/xlink" x="0px" y="0px" width="100px" height="50px"
	 viewBox="0 0 100 50" enable-background="new 0 0 100 50" xml:space="preserve">
<g id="g2560" transform="translate(26.5,-39.5)" inkscape:label="Layer 1">
	<g id="XMLID_1_">
		<g>
			<path fill="#FFFFFF" d="M42.72,64.5C37.95,72.93,32.2,77.18,27,79.31c-5.36,2.2-9.84,2.19-12.25,2.19H3.5
				c1.87-3.11,4.75-9.05,4.75-17c0-7.97-2.91-13.9-4.78-17h11.28C19.43,47.5,33.04,47.37,42.72,64.5z"/>
			<path d="M46.06,63.78l-1.31,0.72l1.31,0.72c-0.279,0.521-0.569,1.04-0.859,1.53c-0.44-0.64-0.7-1.42-0.7-2.25
				c0-0.84,0.26-1.61,0.7-2.25C45.49,62.74,45.78,63.25,46.06,63.78z"/>
			<path d="M42.72,64.5c-9.68-17.13-23.29-17-27.97-17H3.47c1.87,3.1,4.78,9.03,4.78,17c0,7.95-2.88,13.89-4.75,17h11.25
				c2.41,0,6.89,0.01,12.25-2.19C32.2,77.18,37.95,72.93,42.72,64.5z M44.5,64.5c0,0.83,0.26,1.61,0.7,2.25
				c-5.021,8.53-11.22,13.04-16.82,15.34c-5.94,2.43-11.22,2.41-13.63,2.41h-14h-3.16l2-2.44c0,0,5.66-7,5.66-17.56
				c0-10.56-5.66-17.56-5.66-17.56l-2-2.44h3.16h14c4.63,0,20.12,0.21,30.45,17.75C44.76,62.89,44.5,63.66,44.5,64.5z"/>
		</g>
		<g>
			<path fill="none" stroke="#000000" stroke-width="3" d="M45.2,62.25c0.71-1.06,1.93-1.75,3.3-1.75c2.21,0,4,1.79,4,4s-1.79,4-4,4
				c-1.37,0-2.59-0.69-3.3-1.75c-0.44-0.64-0.7-1.42-0.7-2.25C44.5,63.66,44.76,62.89,45.2,62.25z"/>
		</g>
	</g>
</g>
<defs>
	
	
		<inkscape:perspective  id="perspective2714" sodipodi:type="inkscape:persp3d" inkscape:persp3d-origin="25 : 10 : 1" inkscape:vp_x="0 : 15 : 1" inkscape:vp_z="50 : 15 : 1" inkscape:vp_y="0 : 1000 : 0">
		</inkscape:perspective>
	
		<inkscape:perspective  id="perspective2806" sodipodi:type="inkscape:persp3d" inkscape:persp3d-origin="0.5 : 0.33333333 : 1" inkscape:vp_x="0 : 0.5 : 1" inkscape:vp_z="1 : 0.5 : 1" inkscape:vp_y="0 : 1000 : 0">
		</inkscape:perspective>
	
		<inkscape:perspective  id="perspective2819" sodipodi:type="inkscape:persp3d" inkscape:persp3d-origin="372.04724 : 350.78739 : 1" inkscape:vp_x="0 : 526.18109 : 1" inkscape:vp_z="744.09448 : 526.18109 : 1" inkscape:vp_y="0 : 1000 : 0">
		</inkscape:perspective>
	
		<inkscape:perspective  id="perspective2777" sodipodi:type="inkscape:persp3d" inkscape:persp3d-origin="75 : 40 : 1" inkscape:vp_x="0 : 60 : 1" inkscape:vp_z="150 : 60 : 1" inkscape:vp_y="0 : 1000 : 0">
		</inkscape:perspective>
	
		<inkscape:perspective  id="perspective3275" sodipodi:type="inkscape:persp3d" inkscape:persp3d-origin="50 : 33.333333 : 1" inkscape:vp_x="0 : 50 : 1" inkscape:vp_z="100 : 50 : 1" inkscape:vp_y="0 : 1000 : 0">
		</inkscape:perspective>
	
		<inkscape:perspective  id="perspective5533" sodipodi:type="inkscape:persp3d" inkscape:persp3d-origin="32 : 21.333333 : 1" inkscape:vp_x="0 : 32 : 1" inkscape:vp_z="64 : 32 : 1" inkscape:vp_y="0 : 1000 : 0">
		</inkscape:perspective>
	
		<inkscape:perspective  id="perspective2557" sodipodi:type="inkscape:persp3d" inkscape:persp3d-origin="25 : 16.666667 : 1" inkscape:vp_x="0 : 25 : 1" inkscape:vp_z="50 : 25 : 1" inkscape:vp_y="0 : 1000 : 0">
		</inkscape:perspective>
</defs>
<sodipodi:namedview  id="base" inkscape:snap-bbox="true" inkscape:window-y="-4" inkscape:window-x="37" inkscape:window-height="874" inkscape:window-width="1399" gridtolerance="10000" inkscape:grid-points="true" inkscape:grid-bbox="true" showgrid="true" inkscape:current-layer="layer1" inkscape:document-units="px" inkscape:cy="22.102344" inkscape:cx="78.677644" inkscape:zoom="1" inkscape:pageshadow="2" inkscape:pageopacity="0.0" borderopacity="1.0" bordercolor="#666666" pagecolor="#ffffff">
	
		<inkscape:grid  color="#0000ff" opacity="0.2" type="xygrid" originy="0px" originx="0px" enabled="true" id="GridFromPre046Settings" visible="true" empspacing="5" empopacity="0.4" empcolor="#0000ff" spacingy="1px" spacingx="1px">
		</inkscape:grid>
</sodipodi:namedview>
</svg>
